<mxfile host="app.diagrams.net" modified="2021-05-30T22:45:55.279Z" agent="5.0 (Windows NT 10.0; Win64; x64) AppleWebKit/537.36 (KHTML, like Gecko) Chrome/90.0.4430.212 Safari/537.36" etag="aT8Eh7HgbCPyAwwT0g4A" version="14.7.3" type="github">
  <diagram id="pg35euM3kPduYRfLaAQe" name="Page-1">
    <mxGraphModel dx="868" dy="425" grid="1" gridSize="10" guides="1" tooltips="1" connect="1" arrows="1" fold="1" page="1" pageScale="1" pageWidth="3300" pageHeight="4681" math="0" shadow="0">
      <root>
        <mxCell id="0" />
        <mxCell id="1" parent="0" />
        <mxCell id="VIvbZ9C64C_Wb4qHjokk-1" value="" style="strokeWidth=1;shadow=0;dashed=0;align=center;html=1;shape=mxgraph.mockup.containers.browserWindow;rSize=0;strokeColor=#666666;strokeColor2=#008cff;strokeColor3=#c4c4c4;mainText=,;recursiveResize=0;" vertex="1" parent="1">
          <mxGeometry x="180" y="60" width="550" height="380" as="geometry" />
        </mxCell>
        <mxCell id="VIvbZ9C64C_Wb4qHjokk-2" value="Add Work" style="strokeWidth=1;shadow=0;dashed=0;align=center;html=1;shape=mxgraph.mockup.containers.anchor;fontSize=17;fontColor=#666666;align=left;" vertex="1" parent="VIvbZ9C64C_Wb4qHjokk-1">
          <mxGeometry x="60" y="12" width="110" height="26" as="geometry" />
        </mxCell>
        <mxCell id="VIvbZ9C64C_Wb4qHjokk-3" value="https://www.artisticmood.it" style="strokeWidth=1;shadow=0;dashed=0;align=center;html=1;shape=mxgraph.mockup.containers.anchor;rSize=0;fontSize=17;fontColor=#666666;align=left;" vertex="1" parent="VIvbZ9C64C_Wb4qHjokk-1">
          <mxGeometry x="130" y="60" width="250" height="26" as="geometry" />
        </mxCell>
        <mxCell id="VIvbZ9C64C_Wb4qHjokk-4" value="&lt;span style=&quot;font-size: 11px&quot;&gt;Painting&lt;/span&gt;" style="strokeWidth=1;shadow=0;dashed=0;align=left;html=1;shape=mxgraph.mockup.forms.comboBox;strokeColor=#999999;fillColor=#ddeeff;align=left;fillColor2=#aaddff;mainText=;fontColor=#666666;fontSize=17;spacingLeft=3;" vertex="1" parent="VIvbZ9C64C_Wb4qHjokk-1">
          <mxGeometry x="130" y="210" width="120" height="19" as="geometry" />
        </mxCell>
        <mxCell id="VIvbZ9C64C_Wb4qHjokk-5" value="Select the image to upload:" style="text;html=1;resizable=0;autosize=1;align=left;verticalAlign=middle;points=[];fillColor=none;strokeColor=none;rounded=0;" vertex="1" parent="VIvbZ9C64C_Wb4qHjokk-1">
          <mxGeometry x="50" y="240" width="160" height="20" as="geometry" />
        </mxCell>
        <mxCell id="VIvbZ9C64C_Wb4qHjokk-6" value="ego.jpg" style="text;html=1;resizable=0;autosize=1;align=center;verticalAlign=middle;points=[];fillColor=none;strokeColor=none;rounded=0;" vertex="1" parent="VIvbZ9C64C_Wb4qHjokk-1">
          <mxGeometry x="310" y="240" width="50" height="20" as="geometry" />
        </mxCell>
        <mxCell id="VIvbZ9C64C_Wb4qHjokk-7" value="&lt;font style=&quot;font-size: 15px&quot;&gt;Add your work&lt;/font&gt;" style="text;html=1;resizable=0;autosize=1;align=left;verticalAlign=middle;points=[];fillColor=none;strokeColor=none;rounded=0;" vertex="1" parent="1">
          <mxGeometry x="230" y="190" width="110" height="20" as="geometry" />
        </mxCell>
        <mxCell id="VIvbZ9C64C_Wb4qHjokk-8" value="Work name:" style="fillColor=none;strokeColor=none;align=left;fontSize=11;" vertex="1" parent="1">
          <mxGeometry x="230" y="230" width="70" height="40" as="geometry" />
        </mxCell>
        <mxCell id="VIvbZ9C64C_Wb4qHjokk-9" value="&lt;font style=&quot;font-size: 11px&quot;&gt;Ego&lt;/font&gt;" style="html=1;shadow=0;dashed=0;shape=mxgraph.bootstrap.rrect;rSize=5;fillColor=none;strokeColor=#999999;align=left;spacing=15;fontSize=14;fontColor=#6C767D;" vertex="1" parent="1">
          <mxGeometry x="310" y="240" width="120" height="20" as="geometry" />
        </mxCell>
        <mxCell id="VIvbZ9C64C_Wb4qHjokk-10" value="Type of work:" style="fillColor=none;strokeColor=none;align=left;fontSize=11;" vertex="1" parent="1">
          <mxGeometry x="230" y="260" width="70" height="40" as="geometry" />
        </mxCell>
        <mxCell id="VIvbZ9C64C_Wb4qHjokk-11" value="Choose file" style="rounded=1;html=1;shadow=0;dashed=0;whiteSpace=wrap;fontSize=10;fillColor=#E6E6E6;align=center;strokeColor=#B3B3B3;fontColor=#333333;" vertex="1" parent="1">
          <mxGeometry x="390" y="300" width="80" height="20" as="geometry" />
        </mxCell>
        <mxCell id="VIvbZ9C64C_Wb4qHjokk-12" value="Submit" style="rounded=1;html=1;shadow=0;dashed=0;whiteSpace=wrap;fontSize=10;fillColor=#E6E6E6;align=center;strokeColor=#B3B3B3;fontColor=#333333;" vertex="1" parent="1">
          <mxGeometry x="230" y="340" width="80" height="20" as="geometry" />
        </mxCell>
      </root>
    </mxGraphModel>
  </diagram>
</mxfile>
